<?xml version="1.0" encoding="UTF-8"?>
<svg id="dbc" xmlns="http://www.w3.org/2000/svg" version="1.1" viewBox="0 -32 128 128">
  <!-- Generator: Adobe Illustrator 30.5.1, SVG Export Plug-In . SVG Version: 2.1.4 Build 3)  -->
  <defs>
    <style>
      .st0 {
        fill: #052a83;
      }
    </style>
  </defs>
  <path id="d" class="st0" d="M21.44,42.4c-5.62,0-9.76-4.14-9.76-10.04s4.36-9.76,9.83-9.76c5.76,0,9.9,4.36,9.9,9.76,0,5.76-4.28,10.04-9.97,10.04ZM42.44,52.04V.04h-11.66v16.3c-3.31-3.31-6.95-4.64-11.45-4.64C7.95,11.7,0,20.76,0,32.43s7.73,20.87,19.54,20.87c5.55,0,9.49-1.9,11.66-5.48h.14v4.21h11.11-.02Z"/>
  <path id="b" class="st0" d="M64.53,42.44c-5.4,0-9.49-4.28-9.49-10.04,0-5.4,4.21-9.83,9.64-9.83s9.64,4.71,9.64,9.9c0,5.62-4.28,9.97-9.76,9.97h-.02ZM54.99,52v-4.14h.14c1.76,3.31,6.47,5.48,11.16,5.48,12.02,0,19.68-9.07,19.68-21.08,0-13-9.28-20.59-19.4-20.59-4.07,0-8.02,1.12-11.11,4.43V0h-11.66v52h11.18Z"/>
  <path id="c" class="st0" d="M127.93,28.04c-2.19-9.9-10.54-16.37-20.8-16.37-11.24,0-20.44,9.07-20.44,20.73s9.14,20.87,20.66,20.87c9.97,0,18.35-6.33,20.66-16.09h-11.88c-1.76,3.38-4.5,5.19-8.43,5.19-5.4,0-9.28-4.21-9.28-9.9s3.66-9.9,9-9.9c4,0,7.02,1.83,8.71,5.48h11.8Z"/>
</svg>